<?xml version="1.0" encoding="UTF-8"?>
<!-- VNC logo by Andrew Fitzsimon (CC BY-SA), cleaned up for embedding -->
<svg xmlns="http://www.w3.org/2000/svg" viewBox="0 0 128 128">
  <path fill="#000000" fill-rule="evenodd" d="M 39.5,83.25 L 24.5,83.25 L 24.5,53.25 C 24.5,53.25 24.25,30.5 47.75,30.5 C 71.25,30.5 70.75,53.25 70.75,53.25 L 70.75,83.25 L 56.75,83.25 L 56.75,74.557132 L 56.75,53.25 C 56.75,53.25 55.75,44 48,44 C 40.25,44 39.5,53.25 39.5,53.25 L 39.5,83.25 z" />
  <path fill="#000000" fill-rule="evenodd" d="M 117.375,68.470776 L 117.375,82.875352 L 93.488744,82.875352 C 93.488744,82.875352 73.25368,83.684059 73.25368,57.516542 C 73.25368,31.349029 93.488744,31.375455 93.488744,31.375455 L 117.375,31.375455 L 117.19822,46.434281 L 110.27688,46.434281 L 93.488744,46.434281 C 93.488744,46.434281 86.123816,48.078122 86.123816,56.707834 C 86.123816,65.337546 93.488744,68.470776 93.488744,68.470776 L 117.375,68.470776 z" />
  <path fill="#ff0000" fill-rule="evenodd" d="M 10.5,23 L 48.5,23 L 48.5,26.25 L 41.25,26.25 C 41.25,26.25 37.5,27 39.25,31.75 C 41,36.5 58.75,79 58.75,79 L 59.745513,78.733253 L 79,36 C 79,36 81.899528,26.247449 78,26.25 C 69.267956,26.255713 78,26.25 69.5,26.25 C 68.25,26.25 68.63726,23.030209 68.63726,23.030209 L 95.75,23.030209 L 95.75,26.25 C 95.75,26.25 90.25,25.75 86.5,32.25 C 81.750993,40.481612 53,105 53,105 L 50.075962,105 L 18.25,30.75 C 16.25,25.75 10.677645,26.25 10.677645,26.25 L 10.5,23 z" />
  <path fill="#000000" fill-rule="evenodd" d="M 49.268494,30.499999 C 23.96236,30.499999 24.500788,53.249999 24.500788,53.249999 L 24.500788,83.25 L 39.576781,83.25 L 39.576781,74.55713 L 39.576781,53.249999 C 39.576781,53.249999 40.653638,43.999999 48.99928,43.999999 M 48.99928,43.999999 C 48.536086,44.54866 49.203793,43.516505 49.268494,30.499999" />
  <rect fill="#39397b" x="64.5" y="90.25" width="53" height="10.75" />
</svg>
